PathFileType	4	(X/Y/Z)	c:/Users/goper/Files/vsCode/490R/osim_files/C11/C11_Static01.trc
DataRate	CameraRate	NumFrames	NumMarkers	Units                	OrigDataRate	OrigDataStartFrame	OrigNumFrames
120.00	120.00	8	36	mm	120.0	273	1089
                Frame#	Time	LPSI			LASI			LTH1			LTH2			LTH3			LTH4			LLFE			LMFE			LSH1			LSH2			LSH3			LSH4			LLMA			LMMA			LCAL			LMTP			LTOE			LMTP			RPSI			RASI			RTH1			RTH2			RTH3			RTH4			RLFE			RMFE			RSH1			RSH2			RSH3			RSH4			RLMA			RMMA			RCAL			RMTP			RTOE			RMTP		
		X1	Y1	Z1	X2	Y2	Z2	X3	Y3	Z3	X4	Y4	Z4	X5	Y5	Z5	X6	Y6	Z6	X7	Y7	Z7	X8	Y8	Z8	X9	Y9	Z9	X10	Y10	Z10	X11	Y11	Z11	X12	Y12	Z12	X13	Y13	Z13	X14	Y14	Z14	X15	Y15	Z15	X16	Y16	Z16	X17	Y17	Z17	X18	Y18	Z18	X19	Y19	Z19	X20	Y20	Z20	X21	Y21	Z21	X22	Y22	Z22	X23	Y23	Z23	X24	Y24	Z24	X25	Y25	Z25	X26	Y26	Z26	X27	Y27	Z27	X28	Y28	Z28	X29	Y29	Z29	X30	Y30	Z30	X31	Y31	Z31	X32	Y32	Z32	X33	Y33	Z33	X34	Y34	Z34	X35	Y35	Z35	X36	Y36	Z36

273	2.26667	-381.88196	1016.78760	482.40616	-207.94649	1008.73834	405.16232	-323.64139	644.76453	315.35416	-319.85037	597.30676	312.36935	-263.09821	644.70508	310.80011	-268.39539	598.06244	311.94006	-318.24701	516.58508	306.71185	-297.64084	501.65015	415.44769	-377.22400	414.14764	292.67883	-377.74710	369.47964	288.25034	-316.35687	410.02814	280.66144	-324.96521	366.00543	277.99628	-353.15048	97.00279	311.30695	-315.29962	110.22195	402.74832	-405.27634	58.69088	370.22452	-244.14789	40.35210	268.44528	-165.87915	57.79979	330.11493	-202.07423	45.70409	379.58600	-373.68411	1030.77222	566.16309	-206.27994	1002.41266	635.94781	-302.95450	632.02936	709.40894	-297.87540	588.17261	709.07867	-240.63007	631.26135	700.64362	-245.87267	588.54462	703.05536	-279.30377	520.24365	701.98969	-304.62958	488.37979	592.34760	-348.33328	414.02478	729.57330	-343.27640	368.07892	732.09851	-286.59631	412.30151	724.22162	-290.47797	365.35632	729.52557	-327.03372	98.21233	711.98254	-298.96405	105.39786	617.88043	-387.74207	58.42146	664.65802	-171.70461	49.07507	643.21820	-168.35338	61.90851	692.70239	-209.34747	38.87433	753.81476
274	2.27500	-381.90100	1016.84125	482.41766	-207.93922	1008.72766	405.22784	-323.68552	644.78992	315.39261	-319.91571	597.32733	312.40579	-263.12741	644.70258	310.83759	-268.43002	598.07239	311.98175	-318.27081	516.60376	306.73676	-297.69070	501.64423	415.47263	-377.28122	414.17963	292.67148	-377.78751	369.50821	288.22693	-316.39035	410.03979	280.69617	-324.98764	366.01480	278.02335	-353.17383	97.00928	311.32431	-315.28247	110.27191	402.71304	-405.30841	58.69368	370.19998	-244.15666	40.34015	268.45337	-165.83733	57.88536	330.07144	-202.02293	45.77393	379.54730	-373.66507	1030.85864	566.13666	-206.21811	1002.46094	635.97034	-302.97177	632.06134	709.41693	-297.93118	588.18768	709.10406	-240.62132	631.34229	700.64038	-245.87701	588.60303	703.09412	-279.28943	520.27692	702.00366	-304.79807	488.25220	592.49323	-348.35657	414.04462	729.56219	-343.43933	368.08804	732.13043	-286.53546	412.38474	724.23676	-290.42230	365.43790	729.52698	-326.98767	98.25832	711.92096	-298.95703	105.40118	617.89996	-387.75540	58.49629	664.59271	-171.66237	49.13943	643.18311	-168.25726	62.03439	692.65155	-209.48093	38.81920	753.72491
275	2.28333	-381.91818	1016.90485	482.42297	-207.90300	1008.70209	405.29346	-323.73166	644.78113	315.43311	-319.95779	597.30884	312.44775	-263.15042	644.66235	310.87833	-268.43857	598.06952	312.01633	-318.30899	516.58307	306.76077	-297.71658	501.64590	415.48788	-377.29062	414.19196	292.63077	-377.80341	369.52527	288.21191	-316.41486	410.03336	280.70609	-324.98044	366.01245	278.03992	-353.16824	96.98267	311.32205	-315.28171	110.27817	402.69998	-405.36743	58.71785	370.14716	-244.16498	40.30950	268.46136	-165.81154	57.91885	330.05188	-201.99525	45.79423	379.54663	-373.64771	1030.88367	566.14941	-206.18758	1002.45331	636.03534	-303.02188	632.02405	709.44360	-298.00348	588.16138	709.14032	-240.61241	631.38397	700.68951	-245.90718	588.60016	703.13843	-279.31067	520.27679	702.03485	-304.83862	488.24017	592.52948	-348.41577	414.01950	729.57611	-343.34579	368.06509	732.01355	-286.51459	412.41998	724.25391	-290.44440	365.44519	729.52142	-327.04355	98.23748	711.86108	-298.96780	105.36951	617.91675	-387.75900	58.50881	664.55084	-171.63287	49.14241	643.18878	-168.21930	62.07186	692.64368	-209.32942	38.90546	753.78613
276	2.29167	-381.94742	1016.95050	482.46307	-207.86435	1008.66467	405.34662	-323.76208	644.74554	315.46017	-319.98199	597.27722	312.48007	-263.17770	644.63629	310.90643	-268.45288	598.05341	312.04623	-318.34781	516.53790	306.80612	-297.74542	501.65945	415.51688	-377.30960	414.16068	292.65387	-377.81174	369.50537	288.20914	-316.43329	410.01648	280.72781	-325.01212	365.99542	278.05603	-353.15848	96.94299	311.32510	-315.23257	110.22395	402.69427	-405.39883	58.71943	370.16364	-244.01343	40.46552	268.32318	-165.77985	57.88522	330.06158	-201.97958	45.77092	379.53564	-373.54971	1030.86243	566.18048	-206.11946	1002.40814	636.08636	-303.06281	631.99579	709.49377	-298.01575	588.12805	709.18365	-240.66707	631.31891	700.75500	-245.92921	588.57715	703.17053	-279.32724	520.26343	702.06134	-304.86075	488.18399	592.55988	-348.42740	413.99576	729.62195	-343.35147	368.00757	732.03992	-286.50995	412.41180	724.28729	-290.46124	365.41394	729.52209	-326.98422	98.20177	711.86053	-298.97479	105.35192	617.92029	-387.73035	58.47083	664.55090	-171.61803	49.11788	643.20203	-168.15997	62.04178	692.64221	-209.30881	38.87276	753.78479
277	2.30000	-381.85330	1016.93713	482.55133	-207.84984	1008.61676	405.39395	-323.74335	644.72046	315.47852	-320.00055	597.23401	312.51053	-263.18802	644.61554	310.93631	-268.48288	598.01514	312.06451	-318.36096	516.47931	306.83356	-297.81171	501.60828	415.54312	-377.32986	414.10815	292.67957	-377.82538	369.46124	288.25250	-316.45544	409.98715	280.74130	-325.02402	365.97229	278.07806	-353.15137	96.91974	311.31256	-315.23947	110.19843	402.69962	-405.36298	58.67514	370.20273	-243.99953	40.43983	268.32831	-165.76337	57.85952	330.07098	-201.95932	45.73724	379.51471	-373.51260	1030.88245	566.25073	-206.11247	1002.36560	636.14252	-303.10938	631.98663	709.53125	-298.09616	588.12720	709.23895	-240.69714	631.29742	700.80310	-245.95137	588.55756	703.21936	-279.36334	520.28046	702.09711	-304.87958	488.16348	592.59308	-348.49329	413.99933	729.65540	-343.42911	368.00156	732.07239	-286.56686	412.38968	724.29840	-290.47934	365.39996	729.54138	-327.03571	98.20363	711.88629	-298.97900	105.31813	617.93542	-387.70453	58.42146	664.56879	-171.62541	49.10437	643.18994	-168.20120	61.97092	692.63617	-209.30486	38.85021	753.79236
278	2.30833	-381.79880	1016.90155	482.62323	-207.82697	1008.55499	405.43402	-323.74301	644.68213	315.49036	-320.03775	597.21014	312.53943	-263.20569	644.56775	310.95975	-268.49658	597.97913	312.09619	-318.37003	516.44818	306.85666	-297.84421	501.52560	415.59241	-377.37204	414.06766	292.72809	-377.84525	369.42642	288.27429	-316.46368	409.97302	280.76617	-325.03778	365.94440	278.09589	-353.14352	96.88409	311.32016	-315.26364	110.14928	402.71896	-405.26910	58.57724	370.23846	-244.01627	40.41714	268.33478	-165.78873	57.81424	330.09396	-201.96991	45.68436	379.54034	-373.52701	1030.90393	566.29449	-206.13268	1002.29187	636.20789	-303.18997	631.93469	709.56329	-298.18774	588.09271	709.27582	-240.80775	631.24176	700.87207	-246.03279	588.50793	703.29370	-279.42307	520.24219	702.12775	-304.83862	488.25278	592.52502	-348.54999	413.98416	729.68036	-343.48245	367.94766	732.09949	-286.68057	412.32498	724.31287	-290.55167	365.37100	729.57983	-327.02206	98.14671	711.89471	-298.98557	105.28300	617.94031	-387.70023	58.37337	664.60394	-171.63846	49.06744	643.19965	-168.23915	61.91885	692.66498	-209.31769	38.81201	753.80145
279	2.31667	-381.77847	1016.94623	482.65463	-207.79614	1008.52386	405.49667	-323.78192	644.71649	315.51111	-320.03955	597.22754	312.54602	-263.20789	644.54742	310.98520	-268.51260	597.96222	312.12204	-318.39392	516.45502	306.87640	-297.88153	501.48297	415.62842	-377.42813	414.05774	292.74463	-377.87384	369.42569	288.29709	-316.48254	409.97168	280.78946	-325.04410	365.94696	278.11362	-353.16266	96.90005	311.33496	-315.24634	110.12464	402.72565	-405.27600	58.59131	370.26654	-244.00699	40.39499	268.34128	-165.76808	57.78562	330.09930	-201.97121	45.65425	379.55441	-373.47263	1030.90112	566.32178	-206.14153	1002.24261	636.27173	-303.21194	631.90521	709.59589	-298.21945	588.05450	709.30731	-240.84070	631.21381	700.93732	-246.10880	588.46814	703.36066	-279.47757	520.17419	702.16730	-304.96341	488.12210	592.63025	-348.56540	413.93546	729.72766	-343.49106	367.87921	732.13263	-286.71564	412.33945	724.32513	-290.59897	365.35306	729.60303	-326.98840	98.07771	711.92108	-298.96194	105.26656	617.95148	-387.70844	58.36246	664.62817	-171.61575	49.03460	643.22430	-168.21300	61.88303	692.67554	-209.30180	38.79205	753.80725
280	2.32500	-381.73715	1016.98584	482.65411	-207.74913	1008.51782	405.53680	-323.80856	644.73077	315.53793	-320.09290	597.24286	312.58151	-263.20270	644.55988	311.00085	-268.51816	598.00433	312.13632	-318.40677	516.48907	306.89233	-297.91461	501.47150	415.63779	-377.46579	414.10672	292.76154	-377.91422	369.46085	288.30371	-316.51874	409.99121	280.79797	-325.06528	365.98291	278.12842	-353.16666	96.91173	311.33362	-315.29883	110.13751	402.72287	-405.28363	58.61524	370.26260	-244.18994	40.24030	268.47562	-165.79796	57.81684	330.10818	-202.00722	45.69082	379.57681	-373.57822	1030.97388	566.34424	-206.19287	1002.26868	636.33270	-303.31595	631.91309	709.62115	-298.34979	588.07111	709.32886	-240.98297	631.22943	700.99646	-246.20781	588.51294	703.41284	-279.59378	520.16333	702.19373	-304.92548	488.28687	592.56415	-348.63971	413.94522	729.74707	-343.58414	367.90970	732.15576	-286.80170	412.34329	724.35016	-290.68515	365.36597	729.63733	-327.03970	98.11284	711.91553	-298.95847	105.29852	617.94910	-387.74084	58.39668	664.62756	-171.64229	49.07331	643.24213	-168.24615	61.92449	692.68158	-209.34358	38.79729	753.80865
